<svg width="292" height="395" viewBox="0 0 292 395" fill="none" xmlns="http://www.w3.org/2000/svg">
<rect width="291.569" height="394.833" rx="16" fill="#F9F5F1"/>
<rect x="137.66" y="84.2478" width="135.802" height="10.0594" rx="5.02972" fill="#E7E9EB"/>
<path d="M0 16C0 7.16345 7.16344 0 16 0H275.569C284.406 0 291.569 7.16345 291.569 16V54.6692H0V16Z" fill="white"/>
<circle cx="30.3718" cy="27.3344" r="7.59294" fill="#F05C5C"/>
<circle cx="30.3718" cy="27.3344" r="7.59294" fill="#F05C5C"/>
<circle cx="53.1506" cy="27.3344" r="7.59294" fill="#FFD743"/>
<circle cx="75.9294" cy="27.3344" r="7.59294" fill="#61D978"/>
<rect x="194.379" y="22.7788" width="78.9666" height="10.6301" rx="5.31506" fill="#E7E9EB"/>
<path d="M24.1694 91.218V82.818H25.1894V91.218H24.1694ZM24.6974 87.522V86.526H29.0294V87.522H24.6974ZM24.6974 83.802V82.818H29.3894V83.802H24.6974ZM30.7305 91.218V82.578L31.7145 82.458L31.7505 82.554V91.218H30.7305ZM35.3556 91.374C34.9396 91.374 34.5676 91.294 34.2396 91.134C33.9196 90.974 33.6676 90.754 33.4836 90.474C33.2996 90.186 33.2076 89.858 33.2076 89.49C33.2076 88.962 33.3956 88.534 33.7716 88.206C34.1556 87.878 34.6836 87.686 35.3556 87.63L37.6716 87.462V88.374L35.5596 88.542C35.1196 88.574 34.7916 88.67 34.5756 88.83C34.3676 88.982 34.2636 89.198 34.2636 89.478C34.2636 89.742 34.3756 89.962 34.5996 90.138C34.8236 90.314 35.1116 90.402 35.4636 90.402C35.8236 90.402 36.1516 90.318 36.4476 90.15C36.7436 89.982 36.9756 89.758 37.1436 89.478C37.3196 89.198 37.4076 88.886 37.4076 88.542V87.57C37.4076 87.114 37.2636 86.738 36.9756 86.442C36.6956 86.146 36.3196 85.998 35.8476 85.998C35.4796 85.998 35.1636 86.09 34.8996 86.274C34.6356 86.45 34.4556 86.698 34.3596 87.018H34.2276L33.3396 86.73C33.5156 86.194 33.8236 85.778 34.2636 85.482C34.7036 85.186 35.2356 85.038 35.8596 85.038C36.6756 85.038 37.3036 85.282 37.7436 85.77C38.1916 86.258 38.4156 86.946 38.4156 87.834V91.218H37.4556V89.466L37.8156 89.658C37.7196 89.986 37.5476 90.282 37.2996 90.546C37.0596 90.802 36.7716 91.006 36.4356 91.158C36.1076 91.302 35.7476 91.374 35.3556 91.374ZM41.9906 91.374C41.3586 91.374 40.8266 91.222 40.3946 90.918C39.9626 90.614 39.6746 90.19 39.5306 89.646L40.4666 89.418L40.5986 89.442C40.6866 89.746 40.8626 89.986 41.1266 90.162C41.3986 90.33 41.7146 90.414 42.0746 90.414C42.4346 90.414 42.7386 90.334 42.9866 90.174C43.2426 90.006 43.3706 89.79 43.3706 89.526C43.3706 89.31 43.2946 89.138 43.1426 89.01C42.9986 88.874 42.7786 88.774 42.4826 88.71L41.3666 88.458C40.8066 88.33 40.3906 88.122 40.1186 87.834C39.8546 87.546 39.7226 87.202 39.7226 86.802C39.7226 86.458 39.8146 86.154 39.9986 85.89C40.1906 85.626 40.4546 85.422 40.7906 85.278C41.1266 85.126 41.5066 85.05 41.9306 85.05C42.5466 85.05 43.0666 85.202 43.4906 85.506C43.9146 85.81 44.1946 86.242 44.3306 86.802L43.3946 86.994L43.2626 86.97C43.1906 86.666 43.0226 86.43 42.7586 86.262C42.5026 86.094 42.2186 86.01 41.9066 86.01C41.5786 86.01 41.3026 86.082 41.0786 86.226C40.8626 86.362 40.7546 86.542 40.7546 86.766C40.7546 86.95 40.8226 87.106 40.9586 87.234C41.1026 87.354 41.3266 87.446 41.6306 87.51L42.7586 87.774C43.3186 87.902 43.7346 88.106 44.0066 88.386C44.2786 88.666 44.4146 89.026 44.4146 89.466C44.4146 89.858 44.3066 90.198 44.0906 90.486C43.8826 90.766 43.5946 90.986 43.2266 91.146C42.8666 91.298 42.4546 91.374 41.9906 91.374ZM45.6836 91.218V82.578L46.6676 82.458L46.7036 82.554V86.898L46.3796 86.718C46.4916 86.374 46.6676 86.078 46.9076 85.83C47.1476 85.582 47.4276 85.39 47.7476 85.254C48.0756 85.118 48.4236 85.05 48.7916 85.05C49.2236 85.05 49.6076 85.142 49.9436 85.326C50.2876 85.51 50.5556 85.782 50.7476 86.142C50.9396 86.502 51.0356 86.954 51.0356 87.498V91.218H50.0156V87.75C50.0156 87.318 49.9516 86.978 49.8236 86.73C49.6956 86.474 49.5196 86.294 49.2956 86.19C49.0796 86.086 48.8316 86.034 48.5516 86.034C48.2476 86.034 47.9516 86.11 47.6636 86.262C47.3836 86.406 47.1516 86.626 46.9676 86.922C46.7916 87.218 46.7036 87.586 46.7036 88.026V91.218H45.6836ZM58.9513 91.374C58.1913 91.374 57.5193 91.194 56.9353 90.834C56.3513 90.466 55.8913 89.958 55.5553 89.31C55.2273 88.654 55.0633 87.89 55.0633 87.018C55.0633 86.138 55.2273 85.374 55.5553 84.726C55.8913 84.078 56.3513 83.574 56.9353 83.214C57.5193 82.846 58.1913 82.662 58.9513 82.662C59.7593 82.662 60.4793 82.878 61.1113 83.31C61.7433 83.734 62.2113 84.342 62.5153 85.134L61.6273 85.386L61.4953 85.362C61.2633 84.802 60.9273 84.378 60.4873 84.09C60.0473 83.802 59.5433 83.658 58.9753 83.658C58.4233 83.658 57.9313 83.794 57.4993 84.066C57.0673 84.338 56.7273 84.726 56.4793 85.23C56.2313 85.734 56.1073 86.33 56.1073 87.018C56.1073 87.706 56.2313 88.302 56.4793 88.806C56.7273 89.31 57.0673 89.698 57.4993 89.97C57.9313 90.242 58.4233 90.378 58.9753 90.378C59.5433 90.378 60.0473 90.234 60.4873 89.946C60.9273 89.65 61.2633 89.226 61.4953 88.674L61.6273 88.65L62.5153 88.902C62.2113 89.694 61.7433 90.306 61.1113 90.738C60.4793 91.162 59.7593 91.374 58.9513 91.374ZM65.6837 91.374C65.2677 91.374 64.8957 91.294 64.5677 91.134C64.2477 90.974 63.9957 90.754 63.8117 90.474C63.6277 90.186 63.5357 89.858 63.5357 89.49C63.5357 88.962 63.7237 88.534 64.0997 88.206C64.4837 87.878 65.0117 87.686 65.6837 87.63L67.9997 87.462V88.374L65.8877 88.542C65.4477 88.574 65.1197 88.67 64.9037 88.83C64.6957 88.982 64.5917 89.198 64.5917 89.478C64.5917 89.742 64.7037 89.962 64.9277 90.138C65.1517 90.314 65.4397 90.402 65.7917 90.402C66.1517 90.402 66.4797 90.318 66.7757 90.15C67.0717 89.982 67.3037 89.758 67.4717 89.478C67.6477 89.198 67.7357 88.886 67.7357 88.542V87.57C67.7357 87.114 67.5917 86.738 67.3037 86.442C67.0237 86.146 66.6477 85.998 66.1757 85.998C65.8077 85.998 65.4917 86.09 65.2277 86.274C64.9637 86.45 64.7837 86.698 64.6877 87.018H64.5557L63.6677 86.73C63.8437 86.194 64.1517 85.778 64.5917 85.482C65.0317 85.186 65.5637 85.038 66.1877 85.038C67.0037 85.038 67.6317 85.282 68.0717 85.77C68.5197 86.258 68.7437 86.946 68.7437 87.834V91.218H67.7837V89.466L68.1437 89.658C68.0477 89.986 67.8757 90.282 67.6277 90.546C67.3877 90.802 67.0997 91.006 66.7637 91.158C66.4357 91.302 66.0757 91.374 65.6837 91.374ZM70.3267 91.218V85.206H71.3107V86.898L71.0227 86.718C71.1667 86.254 71.4347 85.886 71.8267 85.614C72.2187 85.342 72.6587 85.206 73.1467 85.206H73.7587V86.166H72.9907C72.6627 86.166 72.3747 86.246 72.1267 86.406C71.8867 86.558 71.6947 86.774 71.5507 87.054C71.4147 87.326 71.3467 87.646 71.3467 88.014V91.218H70.3267ZM76.9597 91.374C76.4237 91.374 75.9397 91.238 75.5077 90.966C75.0757 90.694 74.7317 90.322 74.4757 89.85C74.2277 89.37 74.1037 88.822 74.1037 88.206C74.1037 87.598 74.2277 87.058 74.4757 86.586C74.7317 86.106 75.0757 85.73 75.5077 85.458C75.9397 85.186 76.4237 85.05 76.9597 85.05C77.3757 85.05 77.7557 85.134 78.0997 85.302C78.4517 85.47 78.7477 85.702 78.9877 85.998C79.2357 86.286 79.4157 86.622 79.5277 87.006V89.418C79.4157 89.794 79.2357 90.13 78.9877 90.426C78.7477 90.722 78.4517 90.954 78.0997 91.122C77.7557 91.29 77.3757 91.374 76.9597 91.374ZM77.0317 90.402C77.4237 90.402 77.7677 90.31 78.0637 90.126C78.3597 89.934 78.5917 89.674 78.7597 89.346C78.9357 89.018 79.0237 88.638 79.0237 88.206C79.0237 87.774 78.9357 87.394 78.7597 87.066C78.5917 86.738 78.3597 86.482 78.0637 86.298C77.7677 86.114 77.4237 86.022 77.0317 86.022C76.6717 86.022 76.3437 86.114 76.0477 86.298C75.7597 86.482 75.5317 86.738 75.3637 87.066C75.2037 87.394 75.1237 87.774 75.1237 88.206C75.1237 88.638 75.2037 89.018 75.3637 89.346C75.5317 89.674 75.7597 89.934 76.0477 90.126C76.3437 90.31 76.6717 90.402 77.0317 90.402ZM79.0597 91.218V89.07L79.2397 88.206L79.0117 87.354V82.578L80.0077 82.458L80.0437 82.554V91.218H79.0597ZM83.7328 91.374C83.1008 91.374 82.5688 91.222 82.1368 90.918C81.7048 90.614 81.4168 90.19 81.2728 89.646L82.2088 89.418L82.3408 89.442C82.4288 89.746 82.6048 89.986 82.8688 90.162C83.1408 90.33 83.4568 90.414 83.8168 90.414C84.1768 90.414 84.4808 90.334 84.7288 90.174C84.9848 90.006 85.1128 89.79 85.1128 89.526C85.1128 89.31 85.0368 89.138 84.8848 89.01C84.7408 88.874 84.5208 88.774 84.2248 88.71L83.1088 88.458C82.5488 88.33 82.1328 88.122 81.8608 87.834C81.5968 87.546 81.4648 87.202 81.4648 86.802C81.4648 86.458 81.5568 86.154 81.7408 85.89C81.9328 85.626 82.1968 85.422 82.5328 85.278C82.8688 85.126 83.2488 85.05 83.6728 85.05C84.2888 85.05 84.8088 85.202 85.2328 85.506C85.6568 85.81 85.9368 86.242 86.0728 86.802L85.1368 86.994L85.0048 86.97C84.9328 86.666 84.7648 86.43 84.5008 86.262C84.2448 86.094 83.9608 86.01 83.6488 86.01C83.3208 86.01 83.0448 86.082 82.8208 86.226C82.6048 86.362 82.4968 86.542 82.4968 86.766C82.4968 86.95 82.5648 87.106 82.7008 87.234C82.8448 87.354 83.0688 87.446 83.3728 87.51L84.5008 87.774C85.0608 87.902 85.4768 88.106 85.7488 88.386C86.0208 88.666 86.1568 89.026 86.1568 89.466C86.1568 89.858 86.0488 90.198 85.8328 90.486C85.6248 90.766 85.3368 90.986 84.9688 91.146C84.6088 91.298 84.1968 91.374 83.7328 91.374Z" fill="#6D6D6D"/>
<rect x="23.2334" y="110.654" width="250.229" height="66.6438" rx="7" fill="white"/>
<rect x="23.2334" y="187.357" width="250.229" height="66.6438" rx="7" fill="white"/>
<rect x="23.2334" y="261.545" width="250.229" height="66.6438" rx="7" fill="white"/>
<rect x="37.0652" y="124.486" width="216.278" height="8.80201" rx="4.40101" fill="#E7E9EB"/>
<rect x="37.0652" y="139.575" width="201.189" height="8.80201" rx="4.40101" fill="#E7E9EB"/>
<rect x="37.0652" y="154.664" width="132.03" height="8.80201" rx="4.40101" fill="#E7E9EB"/>
<rect x="37.0652" y="201.189" width="216.278" height="8.80201" rx="4.40101" fill="#E7E9EB"/>
<rect x="37.0652" y="216.278" width="201.189" height="8.80201" rx="4.40101" fill="#E7E9EB"/>
<rect x="37.0652" y="231.367" width="132.03" height="8.80201" rx="4.40101" fill="#E7E9EB"/>
<rect x="37.0652" y="275.377" width="216.278" height="8.80201" rx="4.40101" fill="#E7E9EB"/>
<rect x="37.0652" y="290.466" width="201.189" height="8.80201" rx="4.40101" fill="#E7E9EB"/>
<rect x="37.0652" y="305.555" width="132.03" height="8.80201" rx="4.40101" fill="#E7E9EB"/>
</svg>
