<svg width="56" height="39" viewBox="0 0 56 39" fill="none" xmlns="http://www.w3.org/2000/svg">
<path d="M44.5708 16.7006C50.6093 16.7006 55.5046 21.5959 55.5046 27.6344C55.5046 33.6729 50.6093 38.5682 44.5708 38.5682H30.9035V26.0331L31.7041 26.8338C32.7715 27.9012 34.5024 27.9012 35.5698 26.8338C36.6372 25.7664 36.6372 24.0355 35.5698 22.9681L30.1029 17.5012C29.5712 16.9695 28.875 16.7027 28.178 16.7006H28.17H28.1618C27.7942 16.7017 27.4438 16.7752 27.1237 16.908C26.8014 17.0414 26.4994 17.2391 26.2372 17.5012L20.7703 22.9681C19.7028 24.0355 19.7028 25.7664 20.7703 26.8338C21.8377 27.9012 23.5685 27.9012 24.636 26.8338L25.4366 26.0331V38.5682H14.5027C6.95452 38.5682 0.835449 32.4491 0.835449 24.9009C0.835449 17.9779 5.98299 12.2569 12.6595 11.3569C14.8758 4.92258 20.9831 0.299805 28.17 0.299805C37.2279 0.299805 44.5708 7.64267 44.5708 16.7006Z" fill="#E7E9EB"/>
</svg>
